<svg width="1440" height="612" viewBox="0 0 1440 612" fill="none" xmlns="http://www.w3.org/2000/svg">
<g opacity="0.9">
<path d="M599.696 31.2377L599.695 31.2378C416.849 53.6147 229.293 76.5681 -3 56.6332V81L0 81V587.633C0 587.633 323.5 642.133 720 587.633C1116.5 533.133 1440 587.633 1440 587.633V81L1437 81V56.6332C1096.35 -29.5441 852.528 0.295666 599.696 31.2377Z" fill="white"/>
<path d="M599.696 31.2377L599.695 31.2378C416.849 53.6147 229.293 76.5681 -3 56.6332V81L0 81V587.633C0 587.633 323.5 642.133 720 587.633C1116.5 533.133 1440 587.633 1440 587.633V81L1437 81V56.6332C1096.35 -29.5441 852.528 0.295666 599.696 31.2377Z" fill="url(#paint0_linear_1_8)"/>
</g>
<defs>
<linearGradient id="paint0_linear_1_8" x1="1529.5" y1="7.90995e-05" x2="446.531" y2="-471.36" gradientUnits="userSpaceOnUse">
<stop/>
<stop offset="0.46069" stop-color="#2B2B2B"/>
<stop offset="0.885934"/>
</linearGradient>
</defs>
</svg>
