<svg width="1214" height="1978" viewBox="0 0 1214 1978" fill="none" xmlns="http://www.w3.org/2000/svg">
<path d="M1098.36 1751.87C966.708 1628.73 811.956 1608.94 630.528 1737.69C543.966 1799.12 478.013 1825.98 424.106 1822.46C273.896 1812.65 233.746 1605.62 228.989 1550.66C222.524 1475.98 251.524 1321.19 349.949 1298.13C448.376 1275.07 490.692 1343.27 588.345 1412.9C685.995 1482.52 856.059 1475.34 956.183 1412.9C1085.65 1332.15 1131.26 1171.38 1117.83 1043.25C1102.25 894.695 1029.13 777.82 904.414 705.514C828.347 661.414 767.304 645.622 635.354 629.861C567.1 621.709 516.061 589.776 505.394 533.127C494.724 476.48 527.339 428.077 588.344 388.957C721.194 303.757 731.221 193.05 671.444 117.897C611.674 42.74 480.061 0 480.061 0H450.189C450.189 0 633.639 57.402 666.205 157.527C698.771 257.652 588.351 339.203 505.401 323.953C422.451 308.703 407.033 261.983 306.885 240.977C206.735 219.969 -29.1477 280.387 2.9823 516.757C22.4873 660.242 146.202 728.203 280.492 734.68C414.78 741.156 529.519 675.907 642.822 669.297C735.218 663.907 791.646 691.999 819.249 710.747C886.276 756.27 935.029 850.979 897.629 946.047C870.127 1015.95 791.976 1056.09 715.671 1048.27C660.821 1042.65 599.435 1014.53 538.581 955.105C415.568 834.975 152.564 840.351 53.5773 1078.65C32.4973 1129.39 18.8553 1190.7 15.5873 1263.61C10.2143 1383.54 46.8323 1559.46 155.865 1701.32C264.898 1843.17 407.173 1849.41 448.005 1847.95C514.118 1845.58 561.072 1815.89 625.42 1783.33C729.51 1730.66 886.403 1758.2 904.42 1924.66C906.428 1943.2 906.358 1961.44 904.42 1979.02H1213.29C1197.78 1891.81 1158.7 1808.3 1098.36 1751.87Z" fill="#F5F5F7"/>
</svg>
